<svg xmlns="http://www.w3.org/2000/svg" id="Group_2" data-name="Group 2" width="120.591" height="23.72" viewBox="0 0 120.591 23.72"><g id="Group_1" data-name="Group 1"><path id="Path_3" data-name="Path 3" d="M205.643,333.146v23.719h6.06V346.524h4.778v10.32h6.248v-23.7h-6.2V340.8h-4.873v-7.659Z" transform="translate(-205.643 -333.146)" fill="#002d5e"></path><path id="Path_4" data-name="Path 4" d="M226.27,337.984a8.044,8.044,0,1,0,8.267,8.039A8.156,8.156,0,0,0,226.27,337.984Zm0,11.257a3.217,3.217,0,1,1,3.306-3.219A3.261,3.261,0,0,1,226.27,349.241Z" transform="translate(-198.49 -330.346)" fill="#002d5e"></path><path id="Path_5" data-name="Path 5" d="M241.185,338l-1.629,4.96-2.782.021c-.7.019-1.127.33-1.127.811,0,.846,1.539,1.247,2.485,1.628,1.946.785,3.992,1.85,3.992,3.71a4.628,4.628,0,0,1-4.111,4.932h-7.994l1.591-4.932h4.562a.314.314,0,0,0,.205-.125c.052-.063.145-.281-.019-.373-.212-.118-.92-.5-2.229-1.07a8.371,8.371,0,0,1-2.981-2.011,4.843,4.843,0,0,1-.856-2.913c0-.485.254-4.614,5.4-4.614C236.245,338.021,241.185,338,241.185,338Z" transform="translate(-191.537 -330.338)" fill="#002d5e"></path><path id="Path_6" data-name="Path 6" d="M239.228,335.2H244.6v4.422h3.983l.009,4.96h-4.015V349.4a1.505,1.505,0,0,0,.987,1.351l3.028-.009v4.936h-4.775a5.549,5.549,0,0,1-4.547-5.27C239.275,348.353,239.228,335.2,239.228,335.2Z" transform="translate(-186.208 -331.959)" fill="#002d5e"></path><path id="Path_7" data-name="Path 7" d="M262.121,335.992a2.413,2.413,0,1,1-2.414-2.344A2.381,2.381,0,0,1,262.121,335.992Z" transform="translate(-175.752 -332.855)" fill="#002d5e"></path><path id="Path_8" data-name="Path 8" d="M248.394,333.166h3.238v15.881c0,2.311,1.2,4.635,3.94,4.936l4.22-.013-.931,2.883h-4.37c-1.618-.033-3.672-1.564-4.275-2.215a7.115,7.115,0,0,1-1.822-4.992Z" transform="translate(-180.904 -333.134)" fill="#002d5e"></path><rect id="Rectangle_2" data-name="Rectangle 2" width="3.032" height="16.06" transform="translate(82.44 7.659)" fill="#002d5e"></rect><path id="Path_9" data-name="Path 9" d="M262.085,354.072h2.985v-9.346a4.22,4.22,0,0,1,4.09-3.9,4.177,4.177,0,0,1,4.229,3.9v9.309h2.962v-9.958c0-2.756-2.756-6.1-7.156-6.1s-7.145,4.122-7.145,6.1S262.085,354.072,262.085,354.072Z" transform="translate(-173.002 -330.352)" fill="#002d5e"></path><path id="Path_10" data-name="Path 10" d="M273.738,333.166h3V346.7h2.207c1.239-.068,1.653-1.039,2.2-2.011s2.264-3.9,2.264-3.9h3.445s-2.636,4.57-3.053,5.135a6.411,6.411,0,0,1-1.789,1.542c1,.1,3.651,1.3,3.962,3.688v5.7h-3.037v-4.66a2.585,2.585,0,0,0-2.777-2.657h-3.41l-.013,7.317H273.7Z" transform="translate(-166.26 -333.134)" fill="#002d5e"></path></g></svg>