<svg xmlns="http://www.w3.org/2000/svg" viewBox="0 0 240 80" width="240" height="80">
  <title>Klaviyo</title>
  <desc>Marketing automation platform logo - charcoal flag symbol with wordmark</desc>
  
  <!-- Flag symbol in charcoal #232426 -->
  <g fill="#232426">
    <!-- Main flag mark - stylized K with flag elements -->
    <path d="M8 8 L8 72 L18 72 L18 48 L30 72 L44 72 L26 40 L46 8 L33 8 L18 32 L18 8 Z"/>
    <path d="M52 8 L52 72 L62 72 L62 8 Z"/>
  </g>
  
  <!-- Wordmark: klaviyo -->
  <g fill="#232426" transform="translate(70, 0)">
    <!-- Custom letter forms for klaviyo wordmark -->
    <!-- k -->
    <path d="M0 20 L0 60 L10 60 L10 42 L18 52 L28 52 L18 38 L28 20 L18 20 L10 32 L10 20 Z"/>
    <!-- l -->
    <path d="M32 12 L32 60 L42 60 L42 12 Z"/>
    <!-- a -->
    <path d="M58 32 C58 22 52 18 46 18 C38 18 34 24 34 34 C34 44 46 44 46 50 L46 60 L56 60 L56 50 C56 42 60 38 60 32 L58 32 Z M50 38 C50 34 48 30 46 30 C44 30 42 33 42 38 C42 43 44 46 46 46 C48 46 50 44 50 38 Z"/>
    <!-- v -->
    <path d="M64 20 L72 20 L80 48 L88 20 L98 20 L84 60 L76 60 L62 20 Z"/>
    <!-- i -->
    <rect x="102" y="20" width="8" height="40"/>
    <!-- k -->
    <path d="M114 20 L114 60 L124 60 L124 42 L132 52 L142 52 L132 38 L142 20 L132 20 L124 32 L124 20 Z"/>
    <!-- y -->
    <path d="M146 20 L154 20 L164 40 L174 20 L184 20 L168 60 L158 60 L142 20 Z"/>
    <!-- o -->
    <path d="M192 28 C192 18 184 12 176 12 C168 12 160 18 160 28 C160 38 168 46 176 46 C184 46 192 38 192 28 Z M182 28 C182 33 179 38 176 38 C173 38 170 33 170 28 C170 23 173 18 176 18 C179 18 182 23 182 28 Z"/>
  </g>
</svg>